# xmcd
#
# Track frame offsets:
#	150
#	26972
#	54495
#	78295
#	98735
#	121265
#	148505
#	172522
#	196677
#	221727
#
# Disc length: 3328 seconds
#
# Revision: 1
# Processed by: cddbd v1.5.2PL0 Copyright (c) Steve Scherf et al.
# Submitted via: EZCDAudioConverter 8.0.2.1
#
DISCID=7c0cfe0a
DTITLE=Mạnh Quỳnh - Mật Đắng Tình Yêu
DYEAR=1998
DGENRE=
TTITLE0=COn đường mang tên em
TTITLE1=Lỡ cuộc tình sầu
TTITLE2=Nếu đừng dang dở
TTITLE3=Hình bóng cũ
TTITLE4=Tiếng ca u hoài
TTITLE5=Điệp khúc thương đau
TTITLE6=Qua cơn mê
TTITLE7=Mật Đắng Tình Yêu
TTITLE8=Khung trời nhớ
TTITLE9=Ngày ấy quen nhau
EXTD=
EXTT0=
EXTT1=
EXTT2=
EXTT3=
EXTT4=
EXTT5=
EXTT6=
EXTT7=
EXTT8=
EXTT9=
PLAYORDER=
